<mxfile host="app.diagrams.net" agent="Mozilla/5.0 (Windows NT 10.0; Win64; x64) AppleWebKit/537.36 (KHTML, like Gecko) Chrome/129.0.0.0 Safari/537.36 Edg/129.0.0.0" version="24.7.17">
  <diagram name="PÃ¡gina-1" id="QtPSpRnuiM47yX5Z4GX7">
    <mxGraphModel dx="679" dy="372" grid="1" gridSize="10" guides="1" tooltips="1" connect="1" arrows="1" fold="1" page="1" pageScale="1" pageWidth="827" pageHeight="1169" math="0" shadow="0">
      <root>
        <mxCell id="0" />
        <mxCell id="1" parent="0" />
        <mxCell id="M6-WJv1cJtjf_hHQN4af-4" value="&lt;i&gt;&lt;font style=&quot;font-size: 7px;&quot;&gt;Remote host&lt;/font&gt;&lt;/i&gt;" style="image;points=[];aspect=fixed;html=1;align=center;shadow=0;dashed=0;image=img/lib/allied_telesis/computer_and_terminals/Server_Desktop.svg;" parent="1" vertex="1">
          <mxGeometry x="257.4" y="535" width="42.599999999999994" height="54" as="geometry" />
        </mxCell>
        <mxCell id="M6-WJv1cJtjf_hHQN4af-6" value="9119" style="rounded=0;whiteSpace=wrap;html=1;" parent="1" vertex="1">
          <mxGeometry x="300" y="550" width="40" height="20" as="geometry" />
        </mxCell>
        <mxCell id="WpT2jWkuA6hUr7QpGrnJ-2" style="edgeStyle=orthogonalEdgeStyle;rounded=0;orthogonalLoop=1;jettySize=auto;html=1;exitX=1;exitY=0.5;exitDx=0;exitDy=0;entryX=-0.079;entryY=0.493;entryDx=0;entryDy=0;entryPerimeter=0;fillColor=#f8cecc;strokeColor=#b85450;" parent="1" source="M6-WJv1cJtjf_hHQN4af-6" edge="1">
          <mxGeometry relative="1" as="geometry">
            <mxPoint x="566.8399999999999" y="559.86" as="targetPoint" />
          </mxGeometry>
        </mxCell>
        <mxCell id="dV1s3r3i4Is8WXkuzn8e-18" value="8910" style="rounded=0;whiteSpace=wrap;html=1;" parent="1" vertex="1">
          <mxGeometry x="570" y="550" width="40" height="20" as="geometry" />
        </mxCell>
        <mxCell id="dV1s3r3i4Is8WXkuzn8e-19" value="&lt;i style=&quot;font-size: 8px;&quot;&gt;Target host = localhost&lt;/i&gt;" style="sketch=0;aspect=fixed;pointerEvents=1;shadow=0;dashed=0;html=1;strokeColor=none;labelPosition=center;verticalLabelPosition=bottom;verticalAlign=top;align=center;fillColor=#00188D;shape=mxgraph.mscae.enterprise.workstation_client" parent="1" vertex="1">
          <mxGeometry x="610" y="535" width="50" height="50" as="geometry" />
        </mxCell>
        <mxCell id="dV1s3r3i4Is8WXkuzn8e-20" value="Request to 127.0.0.1:9119" style="edgeStyle=orthogonalEdgeStyle;rounded=0;orthogonalLoop=1;jettySize=auto;html=1;entryX=0.033;entryY=0.396;entryDx=0;entryDy=0;entryPerimeter=0;curved=1;fillColor=#f8cecc;strokeColor=#b85450;fontSize=7;" parent="1" source="M6-WJv1cJtjf_hHQN4af-4" target="M6-WJv1cJtjf_hHQN4af-4" edge="1">
          <mxGeometry relative="1" as="geometry">
            <mxPoint x="250" y="555" as="targetPoint" />
            <Array as="points">
              <mxPoint x="279" y="520" />
              <mxPoint x="230" y="520" />
              <mxPoint x="230" y="556" />
              <mxPoint x="251" y="556" />
            </Array>
          </mxGeometry>
        </mxCell>
      </root>
    </mxGraphModel>
  </diagram>
</mxfile>
